<?xml version="1.0" encoding="utf-8"?>
<svg width="522" height="120" viewBox="0 0 522 120" xmlns="http://www.w3.org/2000/svg">
<rect id="frame" x="0" y="0" width="522" height="120" fill="#fff" stroke="none" stroke-width="0"/>

<!-- Association APPARTENIR -->
<g class="page_0_IAxusxXR diagram_page" visibility="visible">
	<line x1="276" y1="60" x2="159" y2="60" stroke="#d6604d" stroke-width="2"/>
	<text x="211" y="77" fill="#4d4d4d" font-family="Verdana" font-size="12">1,1</text>
	<line x1="45" y1="60" x2="159" y2="60" stroke="#d6604d" stroke-width="2"/>
	<text x="86" y="77" fill="#4d4d4d" font-family="Verdana" font-size="12">0,N</text>
	<g>
		<path d="M191 35 a14 14 90 0 1 14 14 V60 h-92 V49 a14 14 90 0 1 14 -14" fill="#f4a582" stroke="#f4a582" stroke-width="0"/>
		<path d="M205 60 v11 a14 14 90 0 1 -14 14 H127 a14 14 90 0 1 -14 -14 V60 H92" fill="#fddbc7" stroke="#fddbc7" stroke-width="0"/>
		<rect x="113" y="35" width="92" height="50" fill="none" rx="14" stroke="#d6604d" stroke-width="2"/>
		<line x1="113" y1="60" x2="205" y2="60" stroke="#d6604d" stroke-width="1"/>
		<text x="120" y="52.75" fill="#000" font-family="Verdana" font-size="12">APPARTENIR</text>
	</g>
</g>

<!-- Association AVOIR -->
<g class="page_0_IAxusxXR diagram_page" visibility="visible">
	<line x1="276" y1="60" x2="374" y2="60" stroke="#d6604d" stroke-width="2"/>
	<text x="320" y="77" fill="#4d4d4d" font-family="Verdana" font-size="12">0,N</text>
	<line x1="473" y1="60" x2="374" y2="60" stroke="#d6604d" stroke-width="2"/>
	<text x="406" y="77" fill="#4d4d4d" font-family="Verdana" font-size="12">0,N</text>
	<g>
		<path d="M387 35 a14 14 90 0 1 14 14 V60 h-54 V49 a14 14 90 0 1 14 -14" fill="#f4a582" stroke="#f4a582" stroke-width="0"/>
		<path d="M401 60 v11 a14 14 90 0 1 -14 14 H361 a14 14 90 0 1 -14 -14 V60 H54" fill="#fddbc7" stroke="#fddbc7" stroke-width="0"/>
		<rect x="347" y="35" width="54" height="50" fill="none" rx="14" stroke="#d6604d" stroke-width="2"/>
		<line x1="347" y1="60" x2="401" y2="60" stroke="#d6604d" stroke-width="1"/>
		<text x="354" y="52.75" fill="#000" font-family="Verdana" font-size="12">AVOIR</text>
	</g>
</g>

<!-- Entity LISTE -->
<g class="page_0_IAxusxXR diagram_page" visibility="visible">
	<g>
		<rect x="9" y="18" width="72" height="25" fill="#bababa" stroke="#bababa" stroke-width="0" opacity="1"/>
		<rect x="9" y="43" width="72" height="59" fill="#e0e0e0" stroke="#e0e0e0" stroke-width="0" opacity="1"/>
		<rect x="9" y="18" width="72" height="84" fill="none" stroke="#878787" stroke-width="2" opacity="1"/>
		<line x1="9" y1="43" x2="81" y2="43" stroke="#878787" stroke-width="1"/>
	</g>
	<text x="27" y="35.75" fill="#000" font-family="Verdana" font-size="12">LISTE</text>
	<text x="14" y="60.8" fill="#000" font-family="Verdana" font-size="12">code_liste</text>
	<line x1="14" y1="63" x2="76" y2="63" stroke="#000" stroke-width="1"/>
	<text x="14" y="77.8" fill="#000" font-family="Verdana" font-size="12">nom</text>
	<text x="14" y="94.8" fill="#000" font-family="Verdana" font-size="12">position</text>
</g>

<!-- Entity CARTE -->
<g class="page_0_IAxusxXR diagram_page" visibility="visible">
	<g>
		<rect x="237" y="9" width="78" height="25" fill="#bababa" stroke="#bababa" stroke-width="0" opacity="1"/>
		<rect x="237" y="34" width="78" height="77" fill="#e0e0e0" stroke="#e0e0e0" stroke-width="0" opacity="1"/>
		<rect x="237" y="9" width="78" height="102" fill="none" stroke="#878787" stroke-width="2" opacity="1"/>
		<line x1="237" y1="34" x2="315" y2="34" stroke="#878787" stroke-width="1"/>
	</g>
	<text x="256" y="26.75" fill="#000" font-family="Verdana" font-size="12">CARTE</text>
	<text x="242" y="51.8" fill="#000" font-family="Verdana" font-size="12">code_carte</text>
	<line x1="242" y1="54" x2="309" y2="54" stroke="#000" stroke-width="1"/>
	<text x="242" y="68.8" fill="#000" font-family="Verdana" font-size="12">texte</text>
	<text x="242" y="85.8" fill="#000" font-family="Verdana" font-size="12">position</text>
	<text x="242" y="102.8" fill="#000" font-family="Verdana" font-size="12">couleur</text>
</g>

<!-- Entity ETIQUETTE -->
<g class="page_0_IAxusxXR diagram_page" visibility="visible">
	<g>
		<rect x="433" y="26" width="80" height="25" fill="#bababa" stroke="#bababa" stroke-width="0" opacity="1"/>
		<rect x="433" y="51" width="80" height="43" fill="#e0e0e0" stroke="#e0e0e0" stroke-width="0" opacity="1"/>
		<rect x="433" y="26" width="80" height="68" fill="none" stroke="#878787" stroke-width="2" opacity="1"/>
		<line x1="433" y1="51" x2="513" y2="51" stroke="#878787" stroke-width="1"/>
	</g>
	<text x="439" y="43.75" fill="#000" font-family="Verdana" font-size="12">ETIQUETTE</text>
	<text x="438" y="68.8" fill="#000" font-family="Verdana" font-size="12">nom</text>
	<line x1="438" y1="71" x2="466" y2="71" stroke="#000" stroke-width="1"/>
	<text x="438" y="85.8" fill="#000" font-family="Verdana" font-size="12">couleur</text>
</g>
</svg>